<mxfile host="app.diagrams.net" agent="Mozilla/5.0 (Windows NT 10.0; Win64; x64) AppleWebKit/537.36 (KHTML, like Gecko) Chrome/135.0.0.0 Safari/537.36" version="26.1.1">
  <diagram name="Page-1" id="eaH99jus3vHL312IAF-z">
    <mxGraphModel dx="590" dy="1185" grid="0" gridSize="10" guides="1" tooltips="1" connect="1" arrows="1" fold="1" page="0" pageScale="1" pageWidth="850" pageHeight="1100" math="0" shadow="0">
      <root>
        <mxCell id="0" />
        <mxCell id="1" parent="0" />
        <mxCell id="4a2X_wlRuigs0F0JvvHb-1" value="User" style="shape=umlActor;verticalLabelPosition=bottom;verticalAlign=top;html=1;outlineConnect=0;" vertex="1" parent="1">
          <mxGeometry x="26" y="190" width="27" height="54" as="geometry" />
        </mxCell>
        <mxCell id="4a2X_wlRuigs0F0JvvHb-2" value="" style="rounded=1;whiteSpace=wrap;html=1;arcSize=16;" vertex="1" parent="1">
          <mxGeometry x="150" y="-31" width="248" height="430" as="geometry" />
        </mxCell>
        <mxCell id="4a2X_wlRuigs0F0JvvHb-4" value="&lt;h1 style=&quot;margin-top: 0px;&quot;&gt;AI-Study Planner&lt;/h1&gt;" style="text;html=1;whiteSpace=wrap;overflow=hidden;rounded=0;" vertex="1" parent="1">
          <mxGeometry x="180" y="-31" width="204" height="44" as="geometry" />
        </mxCell>
        <mxCell id="4a2X_wlRuigs0F0JvvHb-5" value="" style="endArrow=none;html=1;rounded=0;fontSize=12;startSize=8;endSize=8;curved=1;entryX=1.004;entryY=0.079;entryDx=0;entryDy=0;entryPerimeter=0;exitX=0;exitY=0.077;exitDx=0;exitDy=0;exitPerimeter=0;" edge="1" parent="1" source="4a2X_wlRuigs0F0JvvHb-2" target="4a2X_wlRuigs0F0JvvHb-2">
          <mxGeometry width="50" height="50" relative="1" as="geometry">
            <mxPoint x="144" y="13" as="sourcePoint" />
            <mxPoint x="247" y="176" as="targetPoint" />
          </mxGeometry>
        </mxCell>
        <mxCell id="4a2X_wlRuigs0F0JvvHb-6" value="Create Study Task" style="ellipse;whiteSpace=wrap;html=1;" vertex="1" parent="1">
          <mxGeometry x="215" y="47" width="120" height="48" as="geometry" />
        </mxCell>
        <mxCell id="4a2X_wlRuigs0F0JvvHb-10" value="View Task" style="ellipse;whiteSpace=wrap;html=1;" vertex="1" parent="1">
          <mxGeometry x="215" y="125" width="120" height="48" as="geometry" />
        </mxCell>
        <mxCell id="4a2X_wlRuigs0F0JvvHb-11" value="Select Strategy" style="ellipse;whiteSpace=wrap;html=1;" vertex="1" parent="1">
          <mxGeometry x="215" y="190" width="120" height="48" as="geometry" />
        </mxCell>
        <mxCell id="4a2X_wlRuigs0F0JvvHb-12" value="Get AI based recommendation" style="ellipse;whiteSpace=wrap;html=1;" vertex="1" parent="1">
          <mxGeometry x="215" y="270" width="120" height="48" as="geometry" />
        </mxCell>
        <mxCell id="4a2X_wlRuigs0F0JvvHb-16" style="edgeStyle=none;curved=1;rounded=0;orthogonalLoop=1;jettySize=auto;html=1;exitX=1;exitY=0.3333333333333333;exitDx=0;exitDy=0;exitPerimeter=0;entryX=0;entryY=0.5;entryDx=0;entryDy=0;fontSize=12;startSize=8;endSize=8;" edge="1" parent="1" source="4a2X_wlRuigs0F0JvvHb-1" target="4a2X_wlRuigs0F0JvvHb-10">
          <mxGeometry relative="1" as="geometry">
            <mxPoint x="63" y="218" as="sourcePoint" />
            <mxPoint x="225" y="81" as="targetPoint" />
          </mxGeometry>
        </mxCell>
        <mxCell id="4a2X_wlRuigs0F0JvvHb-17" style="edgeStyle=none;curved=1;rounded=0;orthogonalLoop=1;jettySize=auto;html=1;exitX=1;exitY=0.3333333333333333;exitDx=0;exitDy=0;exitPerimeter=0;entryX=0;entryY=0.5;entryDx=0;entryDy=0;fontSize=12;startSize=8;endSize=8;" edge="1" parent="1" source="4a2X_wlRuigs0F0JvvHb-1" target="4a2X_wlRuigs0F0JvvHb-6">
          <mxGeometry relative="1" as="geometry">
            <mxPoint x="73" y="228" as="sourcePoint" />
            <mxPoint x="235" y="91" as="targetPoint" />
          </mxGeometry>
        </mxCell>
        <mxCell id="4a2X_wlRuigs0F0JvvHb-19" style="edgeStyle=none;curved=1;rounded=0;orthogonalLoop=1;jettySize=auto;html=1;exitX=1;exitY=0.3333333333333333;exitDx=0;exitDy=0;exitPerimeter=0;entryX=0;entryY=0.5;entryDx=0;entryDy=0;fontSize=12;startSize=8;endSize=8;" edge="1" parent="1" source="4a2X_wlRuigs0F0JvvHb-1" target="4a2X_wlRuigs0F0JvvHb-11">
          <mxGeometry relative="1" as="geometry">
            <mxPoint x="83" y="238" as="sourcePoint" />
            <mxPoint x="245" y="101" as="targetPoint" />
          </mxGeometry>
        </mxCell>
        <mxCell id="4a2X_wlRuigs0F0JvvHb-20" style="edgeStyle=none;curved=1;rounded=0;orthogonalLoop=1;jettySize=auto;html=1;exitX=1;exitY=0.3333333333333333;exitDx=0;exitDy=0;exitPerimeter=0;entryX=0;entryY=0.5;entryDx=0;entryDy=0;fontSize=12;startSize=8;endSize=8;" edge="1" parent="1" source="4a2X_wlRuigs0F0JvvHb-1" target="4a2X_wlRuigs0F0JvvHb-12">
          <mxGeometry relative="1" as="geometry">
            <mxPoint x="93" y="248" as="sourcePoint" />
            <mxPoint x="255" y="111" as="targetPoint" />
          </mxGeometry>
        </mxCell>
      </root>
    </mxGraphModel>
  </diagram>
</mxfile>
